<?xml version="1.0" encoding="iso-8859-1" standalone="no"?> 
<?xml-stylesheet href="BarrBeckFamilies.css" type="text/css"?> 
<svg xmlns="http://www.w3.org/2000/svg" xmlns:xlink="http://www.w3.org/1999/xlink" width="82.0455pt" height="43.15546pt" viewBox="-41.02274 -19.09996 82.0455 43.15546 "> 
<g transform="translate(0,24.0555 ) scale(1,-1) translate(0,19.09996 )"> 
           <g stroke="#000" fill="#000">
 <g stroke-width="0.4">
 <g transform="translate(-44.08942,-19.09996)">
 <g fill="#000">
 <text style="stroke:none" transform="scale(1,-1) translate(44.08943,0)" text-anchor="middle"  font-size="10"> 
  <g transform="translate(-2.92432,0.0)">
 <g fill="#000">
 <text style="stroke:none" transform="scale(1,-1) translate(2.92432,0)" text-anchor="middle"  font-size="10"> 
<g fill="#000">
 <g stroke="none"> <mi 
mathvariant="bold-script">𝒞</mi></g> </g>
 </text> 
</g>
 </g>
          <g transform="translate(-3.99585,0.0)">
 <g fill="#000">
 <text style="stroke:none" transform="scale(1,-1) translate(3.99585,0)" text-anchor="middle"  font-size="10"> 
<g fill="#000">
 <g stroke="none"> <mi 
mathvariant="bold-script">𝒟</mi></g> </g>
 </text> 
</g>
 </g>
 
      <g transform="translate(-3.4361,0.0)">
 <g fill="#000">
 <text style="stroke:none" transform="scale(1,-1) translate(3.4361,0)" text-anchor="middle"  font-size="10"> 
<g fill="#000">
 <g stroke="none"> <mi 
mathvariant="bold-script">ℬ</mi></g> </g>
 </text> 
</g>
 </g>
 </text> 
</g>
 </g>
 <g stroke-width="0.39998">
 <path d=" M -31.90742 14.76665 L 29.36443 14.76665  " fill="none"/>
 <g transform="translate(29.5644,14.76665)">
 <g stroke-dasharray="none" stroke-dashoffset="0.0">
 <g stroke-linecap="round">
 <g stroke-linejoin="round">
 <path d=" M -2.07988 2.39986 C -1.69989 0.95992 -0.85313 0.27998 0.0 0.0 C -0.85313 -0.27998 -1.69989 -0.95992 -2.07988 -2.39986  " fill="none"/>
 </g>
 </g>
 </g>
  </g>
 <g transform="translate(-4.17061,17.1194)">
 <g fill="#000">
 <text style="stroke:none" transform="scale(1,-1) translate(3.09909,0)" text-anchor="middle"  font-size="10"> 
<g fill="#000">
 <g stroke="none"> <mi 
>U</mi> </g> </g>
 </text> 
</g>
 </g>
 </g>
 <g stroke-width="0.39998">
 <path d=" M -31.90742 9.52194 L -8.07944 -10.66644  " fill="none"/>
 <g transform="matrix(0.76294,-0.6464,0.6464,0.76294,-7.92686,-10.7957)">
 <g stroke-dasharray="none" stroke-dashoffset="0.0">
 <g stroke-linecap="round">
 <g stroke-linejoin="round">
 <path d=" M -2.07988 2.39986 C -1.69989 0.95992 -0.85313 0.27998 0.0 0.0 C -0.85313 -0.27998 -1.69989 -0.95992 -2.07988 -2.39986  " fill="none"/>
 </g>
 </g>
 </g>
  </g>
 <g transform="translate(-26.31596,-6.06815)">
 <g fill="#000">
 <text style="stroke:none" transform="scale(1,-1) translate(2.06117,0)" text-anchor="middle"  font-size="10"> 
<g fill="#000">
 <g stroke="none"> <mi 
>p</mi> </g> </g>
 </text> 
</g>
 </g>
 </g>
 <g stroke-width="0.39998">
 <path d=" M 30.02386 8.99997 L 5.94 -10.82797  " fill="none"/>
 <g transform="matrix(-0.77197,-0.63556,0.63556,-0.77197,5.78564,-10.95506)">
 <g stroke-dasharray="none" stroke-dashoffset="0.0">
 <g stroke-linecap="round">
 <g stroke-linejoin="round">
 <path d=" M -2.07988 2.39986 C -1.69989 0.95992 -0.85313 0.27998 0.0 0.0 C -0.85313 -0.27998 -1.69989 -0.95992 -2.07988 -2.39986  " fill="none"/>
 </g>
 </g>
 </g>
  </g>
 <g transform="translate(20.18031,-6.40773)">
 <g fill="#000">
 <text style="stroke:none" transform="scale(1,-1) translate(1.96413,0)" text-anchor="middle"  font-size="10"> 
<g fill="#000">
 <g stroke="none"> <mi 
>r</mi> </g> </g>
 </text> 
</g>
 </g>
 </g>
 </g>
 </g>
  </g> 
</svg> 
