<?xml version="1.0" encoding="iso-8859-1" standalone="no"?> 
<?xml-stylesheet href="BarrBeckFamilies.css" type="text/css"?> 
<svg xmlns="http://www.w3.org/2000/svg" xmlns:xlink="http://www.w3.org/1999/xlink" width="82.83162pt" height="52.38472pt" viewBox="-38.8199 -27.42082 82.83162 52.38472 "> 
<g transform="translate(0,24.9639 ) scale(1,-1) translate(0,27.42082 )"> 
            <g stroke="#000" fill="#000">
 <g stroke-width="0.4">
 <g transform="translate(-41.81993,-17.9167)">
 <g fill="#000">
 <text style="stroke:none" transform="scale(1,-1) translate(41.81995,0)" text-anchor="middle"  font-size="10"> 
     <g transform="translate(-8.19623,0.0)">
 <g fill="#000">
 <text style="stroke:none" transform="scale(1,-1) translate(8.19623,0)" text-anchor="middle"  font-size="10"> 
<g fill="#000">
 <g stroke="none"> <mi 
>Δ</mi><tspan baseline-shift="sub"><mstyle mathvariant="sans-serif"><mi 
>o</mi><mi 
>p</mi></mstyle></tspan></g> </g>
 </text> 
</g>
 </g>
                   <g transform="translate(-2.92432,0.0)">
 <g fill="#000">
 <text style="stroke:none" transform="scale(1,-1) translate(2.92432,0)" text-anchor="middle"  font-size="10"> 
<g fill="#000">
 <g stroke="none"> <mi 
mathvariant="bold-script">𝒞</mi></g> </g>
 </text> 
</g>
 </g>
 
  <g transform="translate(-14.38374,0.0)">
 <g fill="#000">
 <text style="stroke:none" transform="scale(1,-1) translate(14.38374,0)" text-anchor="middle"  font-size="10"> 
<g fill="#000">
 <g stroke="none"> <mo 
class="MathClass-open">(</mo><mi 
>Δ</mi><tspan baseline-shift="sub"><mstyle mathvariant="sans-serif"><mi 
>o</mi><mi 
>p</mi></mstyle></tspan><mo 
class="MathClass-close">)</mo><tspan baseline-shift="sub"><mo 
class="MathClass-bin">⊳</mo></tspan></g> </g>
 </text> 
</g>
 </g>
           <g transform="translate(-3.4361,0.0)">
 <g fill="#000">
 <text style="stroke:none" transform="scale(1,-1) translate(3.4361,0)" text-anchor="middle"  font-size="10"> 
<g fill="#000">
 <g stroke="none"> <mi 
mathvariant="bold-script">ℬ</mi></g> </g>
 </text> 
</g>
 </g>
 </text> 
</g>
 </g>
 <g stroke-width="0.39998">
 <path d=" M -13.0399 16.0834 L 28.85954 16.0834  " fill="none"/>
 <g transform="translate(29.05952,16.0834)">
 <g stroke-dasharray="none" stroke-dashoffset="0.0">
 <g stroke-linecap="round">
 <g stroke-linejoin="round">
 <path d=" M -2.07988 2.39986 C -1.69989 0.95992 -0.85313 0.27998 0.0 0.0 C -0.85313 -0.27998 -1.69989 -0.95992 -2.07988 -2.39986  " fill="none"/>
 </g>
 </g>
 </g>
  </g>
 <g transform="translate(6.15164,19.79724)">
 <g fill="#000">
 <text style="stroke:none" transform="scale(1,-1) translate(1.95816,0)" text-anchor="middle"  font-size="10"> 
<g fill="#000">
 <g stroke="none"> <mi 
>q</mi> </g> </g>
 </text> 
</g>
 </g>
 </g>
 <g stroke-width="0.39998">
 <path d=" M -24.43616 8.94347 L -24.43616 -6.81671  " fill="none"/>
 <g transform="matrix(0.0,1.0,1.0,0.0,-24.43616,8.94347)">
 <g stroke-dasharray="none" stroke-dashoffset="0.0">
 <g stroke-linejoin="miter">
 <g stroke-linecap="round">
 <path d=" M 0.0 1.95987 C 0.6848 1.95987 1.23993 1.52113 1.23993 0.97993 C 1.23993 0.43874 0.6848 0.0 0.0 0.0  " fill="none"/>
 </g>
 </g>
 </g>
  </g>
 <g transform="matrix(0.0,-1.0,1.0,0.0,-24.43616,-7.0167)">
 <g stroke-dasharray="none" stroke-dashoffset="0.0">
 <g stroke-linecap="round">
 <g stroke-linejoin="round">
 <path d=" M -2.07988 2.39986 C -1.69989 0.95992 -0.85313 0.27998 0.0 0.0 C -0.85313 -0.27998 -1.69989 -0.95992 -2.07988 -2.39986  " fill="none"/>
 </g>
 </g>
 </g>
  </g>
 </g>
 <g stroke-width="0.39998">
 <path d=" M 35.38385 10.38338 L 35.38385 -7.4834  " fill="none"/>
 <g transform="matrix(0.0,-1.0,1.0,0.0,35.38385,-7.68338)">
 <g stroke-dasharray="none" stroke-dashoffset="0.0">
 <g stroke-linecap="round">
 <g stroke-linejoin="round">
 <path d=" M -2.07988 2.39986 C -1.69989 0.95992 -0.85313 0.27998 0.0 0.0 C -0.85313 -0.27998 -1.69989 -0.95992 -2.07988 -2.39986  " fill="none"/>
 </g>
 </g>
 </g>
  </g>
 <g transform="translate(37.7366,0.42361)">
 <g fill="#000">
 <text style="stroke:none" transform="scale(1,-1) translate(2.06117,0)" text-anchor="middle"  font-size="10"> 
<g fill="#000">
 <g stroke="none"> <mi 
>p</mi> </g> </g>
 </text> 
</g>
 </g>
 </g>
 <g stroke-width="0.39998">
 <path d=" M -8.86943 -7.21667 L 28.90562 12.67381  " fill="none"/>
 <g transform="matrix(0.8848,0.46588,-0.46588,0.8848,29.08257,12.76697)">
 <g stroke-dasharray="none" stroke-dashoffset="0.0">
 <g stroke-linecap="round">
 <g stroke-linejoin="round">
 <path d=" M -2.07988 2.39986 C -1.69989 0.95992 -0.85313 0.27998 0.0 0.0 C -0.85313 -0.27998 -1.69989 -0.95992 -2.07988 -2.39986  " fill="none"/>
 </g>
 </g>
 </g>
  </g>
 <g fill="#fff">
 <g fill="#fff">
 <path d=" M 5.63081 -2.45602 h 9.12845 v 10.55551 h -9.12845 Z  " stroke="none"/>
 </g>
 <g transform="translate(7.78358,1.64117)">
 <g fill="#000">
 <text style="stroke:none" transform="scale(1,-1) translate(2.41145,0)" text-anchor="middle"  font-size="10"> 
<g fill="#000">
 <g stroke="none"> <mover accent="false" 
class="mml-overline"><mrow><mi 
>q</mi> </mrow><mo 
accent="true">¯</mo></mover> </g> </g>
 </text> 
</g>
 </g>
 </g>
 </g>
 <g stroke-width="0.39998">
 <path d=" M -6.85239 -15.4167 L 28.34776 -15.4167  " fill="none"/>
 <g transform="translate(28.54774,-15.4167)">
 <g stroke-dasharray="none" stroke-dashoffset="0.0">
 <g stroke-linecap="round">
 <g stroke-linejoin="round">
 <path d=" M -2.07988 2.39986 C -1.69989 0.95992 -0.85313 0.27998 0.0 0.0 C -0.85313 -0.27998 -1.69989 -0.95992 -2.07988 -2.39986  " fill="none"/>
 </g>
 </g>
 </g>
  </g>
 <g transform="translate(-3.33582,-22.63055)">
 <g fill="#000">
 <text style="stroke:none" transform="scale(1,-1) translate(14.28348,0)" text-anchor="middle"  font-size="10"> 
<g fill="#000">
 <g stroke="none"> <mrow><mo fence="true" form="prefix"> </mo><mrow><mi 
>f</mi> </mrow><mo fence="true" form="postfix">|</mo></mrow><tspan baseline-shift="sub"><mo 
class="MathClass-open">(</mo><mi 
>Δ</mi><tspan baseline-shift="sub"><mstyle mathvariant="sans-serif"><mi 
>o</mi><mi 
>p</mi> </mstyle> </tspan> <mo 
class="MathClass-close">)</mo><tspan baseline-shift="sub"><mo 
class="MathClass-bin">⊳</mo> </tspan> </tspan> </g> </g>
 </text> 
</g>
 </g>
 </g>
 </g>
 </g>
  </g> 
</svg> 
